<svg width="74" height="73" viewBox="0 0 74 73" fill="none" xmlns="http://www.w3.org/2000/svg">
<path d="M31.8879 22.0703C31.3905 21.9285 31.3897 21.1919 31.8871 21.0501C43.529 17.7308 47.9715 13.0821 50.9788 2.24311C51.1227 1.72462 51.9098 1.7471 52.0271 2.27224C54.6059 13.8211 59.1339 18.3477 70.6552 21.0334C71.1883 21.1577 71.1881 21.9702 70.6552 22.0957C58.7149 24.9077 54.2976 29.5351 51.9908 40.8055C51.8826 41.3345 51.093 41.3694 50.9433 40.8507C47.9017 30.3126 43.7313 25.4474 31.8879 22.0703Z" fill="url(#paint0_linear_16_19)"/>
<path d="M36.5 73.002C56.6584 73.002 73 56.6603 73 36.502C73 35.3985 72.951 34.3065 72.8552 33.228C72.8059 32.6739 71.9957 32.6336 71.8287 33.1643C68.5756 43.5035 58.9135 51.002 47.5 51.002C33.4167 51.002 22 39.5852 22 25.502C22 14.0885 29.4984 4.42639 39.8377 1.17322C40.3683 1.00627 40.3281 0.19605 39.774 0.146795C38.6955 0.0509186 37.6035 0.00195312 36.5 0.00195312C16.3416 0.00195312 0 16.3436 0 36.502C0 56.6603 16.3416 73.002 36.5 73.002Z" fill="url(#paint1_linear_16_19)"/>
<path fill-rule="evenodd" clip-rule="evenodd" d="M15.8326 28.3335C15.8326 44.1666 28.6679 57.0019 44.501 57.0019C58.8394 57.0019 70.7193 46.4757 72.8345 32.7293C72.5718 32.5391 72.1164 32.6248 71.9961 33.0079C68.7285 43.4162 59.0054 50.9664 47.5188 50.9664C33.3523 50.9664 21.8681 39.4822 21.8681 25.3158C21.8681 13.8292 29.4183 4.10602 39.8267 0.838405C40.2097 0.718159 40.2954 0.262762 40.1052 0C26.3588 2.11529 15.8326 13.9951 15.8326 28.3335Z" fill="url(#paint2_radial_16_19)"/>
<path fill-rule="evenodd" clip-rule="evenodd" d="M16 28.3335C16 44.1666 28.8349 57.0019 44.6675 57.0019C59.0053 57.0019 70.8847 46.4758 73 32.7294C72.7372 32.5392 72.2818 32.6249 72.1616 33.008C68.8941 43.4163 59.1713 50.9665 47.6851 50.9665C33.5191 50.9665 22.0352 39.4823 22.0352 25.3158C22.0352 13.8292 29.5852 4.10602 39.9932 0.838404C40.3762 0.718156 40.462 0.262761 40.2717 0C26.5258 2.1153 16 13.9951 16 28.3335Z" fill="url(#paint3_radial_16_19)"/>
<path fill-rule="evenodd" clip-rule="evenodd" d="M50.6401 40.9367C50.627 40.9099 50.6159 40.8812 50.6071 40.8506C47.6042 30.4466 43.5011 25.5721 32 22.1999C32.2637 22.0718 32.5597 22 32.8725 22H48.8725C49.9771 22 50.8725 22.8954 50.8725 24V40C50.8725 40.3385 50.7885 40.6573 50.6401 40.9367Z" fill="url(#paint4_linear_16_19)" fill-opacity="0.17"/>
<path fill-rule="evenodd" clip-rule="evenodd" d="M70.8055 20.9999H54C52.8954 20.9999 52 20.1044 52 18.9999V2.0918C52.0111 2.11894 52.0202 2.14779 52.027 2.17834C54.6059 13.7272 59.1338 18.2538 70.6552 20.9395C70.7112 20.9526 70.7613 20.9732 70.8055 20.9999Z" fill="white" fill-opacity="0.32"/>
<defs>
<linearGradient id="paint0_linear_16_19" x1="40" y1="31" x2="65" y2="7" gradientUnits="userSpaceOnUse">
<stop stop-color="#FFBBEC"/>
<stop offset="1" stop-color="#A9C9FF"/>
</linearGradient>
<linearGradient id="paint1_linear_16_19" x1="36.5" y1="0.00195312" x2="36.5" y2="73.002" gradientUnits="userSpaceOnUse">
<stop stop-color="#FF5ACD"/>
<stop offset="1" stop-color="#FBDA61"/>
</linearGradient>
<radialGradient id="paint2_radial_16_19" cx="0" cy="0" r="1" gradientUnits="userSpaceOnUse" gradientTransform="translate(57.5 19) rotate(135.385) scale(52.6806 52.6806)">
<stop offset="0.594093" stop-color="#D9D9D9" stop-opacity="0"/>
<stop offset="1" stop-color="#7E300E"/>
</radialGradient>
<radialGradient id="paint3_radial_16_19" cx="0" cy="0" r="1" gradientUnits="userSpaceOnUse" gradientTransform="translate(24 25) rotate(18.6082) scale(51.7029 51.7025)">
<stop offset="0.594093" stop-color="#D9D9D9" stop-opacity="0"/>
<stop offset="1" stop-color="#FFCCCD" stop-opacity="0.88"/>
</radialGradient>
<linearGradient id="paint4_linear_16_19" x1="50.8726" y1="22.5" x2="41.8726" y2="32" gradientUnits="userSpaceOnUse">
<stop/>
<stop offset="1" stop-color="#666666"/>
</linearGradient>
</defs>
</svg>
